# xmcd
# 
# Track frame offsets:
#     150
#     20137
#     43330
#     63320
# 
# Disc length: 1153
# 
# Revision: 2
# Processed by: cddbd v1.5.2PL0 Copyright (c) Steve Scherf et al.
# Submitted via: fre:ac v1.0.31
# 
DISCID=35047f04
DTITLE=m.c.A・T - SHINING MY LIFE
DYEAR=1995
DGENRE=JPop
TTITLE0=Shinin' My Life
TTITLE1=Kissin' me, kissin' you
TTITLE2=Shinin' My Life (Instrumental)
TTITLE3=Kissin' me, kissin' you (Instrumental)
EXTD=
EXTT0=
EXTT1=
EXTT2=
EXTT3=
PLAYORDER=
